<svg width="32" height="32" viewBox="0 0 32 32" fill="none" xmlns="http://www.w3.org/2000/svg">
  <rect width="32" height="32" rx="8" fill="#2563eb"/>
  <path d="M16 6c-5.5 0-10 4.5-10 10s4.5 10 10 10 10-4.5 10-10S21.5 6 16 6zm0 18c-4.4 0-8-3.6-8-8s3.6-8 8-8 8 3.6 8 8-3.6 8-8 8z" fill="white"/>
  <circle cx="12" cy="14" r="1.5" fill="white"/>
  <circle cx="20" cy="14" r="1.5" fill="white"/>
  <path d="M12 18c1 2 3 2 4 2s3 0 4-2" stroke="white" stroke-width="1.5" stroke-linecap="round"/>
  <path d="M16 10v4M14 12h4" stroke="white" stroke-width="1.5" stroke-linecap="round"/>
</svg>